<?xml version="1.0" encoding="UTF-8"?>
<svg width="69px" height="21px" viewBox="0 0 69 21" version="1.1" xmlns="http://www.w3.org/2000/svg" xmlns:xlink="http://www.w3.org/1999/xlink">
    <!-- Generator: Sketch 42 (36781) - http://www.bohemiancoding.com/sketch -->
    <title>rokid-logo</title>
    <desc>Created with Sketch.</desc>
    <defs></defs>
    <g id="开发平台－应用v1.4-1" stroke="none" stroke-width="1" fill="none" fill-rule="evenodd">
        <g id="开放平台－创建新应用－隐私与合规" transform="translate(-26.000000, -14.000000)" fill-rule="nonzero" fill="#12C4FC">
            <g id="通栏1－1">
                <g id="Group-12" transform="translate(26.000000, 14.000000)">
                    <g id="Group">
                        <g id="rokid-logo">
                            <rect id="Rectangle-path" x="48.1118416" y="5.84928869" width="4.12387214" height="15.0575749"></rect>
                            <ellipse id="Oval" cx="50.1737777" cy="2.31654998" rx="2.29104008" ry="2.31654998"></ellipse>
                            <path d="M23.3686088,5.84928869 C19.2447367,5.84928869 15.9227285,9.20828616 15.9227285,13.3780761 C15.9227285,17.5478661 19.2447367,20.9068635 23.3686088,20.9068635 C27.4924809,20.9068635 30.814489,17.5478661 30.814489,13.3780761 C30.814489,9.20828616 27.4924809,5.84928869 23.3686088,5.84928869 Z M23.3686088,16.7370736 C21.5357767,16.7370736 20.0466007,15.2313161 20.0466007,13.3780761 C20.0466007,11.5248361 21.5357767,10.0190787 23.3686088,10.0190787 C25.2014409,10.0190787 26.6906169,11.5248361 26.6906169,13.3780761 C26.6906169,15.2313161 25.2014409,16.7370736 23.3686088,16.7370736 Z" id="Shape"></path>
                            <path d="M68.9603063,0.637051244 L64.8364342,0.637051244 L64.8364342,6.66008119 C63.8627422,6.13885744 62.7172221,5.84928869 61.5144261,5.84928869 C57.390554,5.84928869 54.0685458,9.20828616 54.0685458,13.3780761 C54.0685458,17.5478661 57.390554,20.9068635 61.5144261,20.9068635 C65.6382982,20.9068635 68.9603063,17.5478661 68.9603063,13.3780761 C68.9603063,13.3780761 68.9603063,13.3780761 68.9603063,13.3201624 L68.9603063,13.3201624 L68.9603063,0.637051244 Z M61.5144261,16.7370736 C59.681594,16.7370736 58.192418,15.2313161 58.192418,13.3780761 C58.192418,11.5248361 59.681594,10.0190787 61.5144261,10.0190787 C63.3472582,10.0190787 64.8364342,11.5248361 64.8364342,13.3780761 C64.8364342,15.2313161 63.3472582,16.7370736 61.5144261,16.7370736 Z" id="Shape"></path>
                            <path d="M46.1644576,5.84928869 L41.5251014,5.84928869 L38.6613013,9.8453374 L37.0002973,12.1618874 C36.8284693,12.4514561 36.7139172,12.7410249 36.6566412,13.0305936 L36.6566412,0.637051244 L32.5327691,0.637051244 L32.5327691,20.9647773 L36.6566412,20.9647773 L36.6566412,13.7255586 C36.7139172,14.0151274 36.8284693,14.3046961 37.0002973,14.5942649 L38.6613013,16.9108148 L41.5251014,20.9068635 L46.1644576,20.9068635 L40.8950654,13.6097311 C40.7805134,13.4939036 40.7805134,13.2622486 40.8950654,13.1464211 L46.1644576,5.84928869 Z" id="Shape"></path>
                            <path d="M11.5124764,13.8413861 C13.7462405,12.3935424 15.1208645,9.8453374 14.8917605,6.94964993 C14.6053805,3.35899747 11.7988564,0.463309995 8.30502028,0.0579137494 C3.83749213,-0.463309995 0,3.06942872 0,7.52878743 L0,20.9068635 L4.12387214,20.9068635 L4.12387214,7.41295993 C4.18114814,5.5018062 5.8994282,3.99604871 7.84681227,4.22770371 C9.27871232,4.40144496 10.4815084,5.55971995 10.7106124,7.00756368 C10.9397164,8.51332117 10.1951283,9.8453374 8.99233231,10.4823886 C8.7059523,10.6561299 8.36229628,10.7719574 7.96136427,10.8298711 C6.93039624,10.9456986 6.12853221,11.8144049 6.12853221,12.9147661 L6.12853221,12.9147661 C6.12853221,13.3780761 6.30036021,13.8413861 6.52946422,14.1888686 L8.19046828,16.5054186 L11.3406484,20.9068635 L15.9800045,20.9068635 L11.3406484,14.4205236 C11.2833724,14.2467824 11.3406484,13.9572136 11.5124764,13.8413861 Z" id="Shape"></path>
                        </g>
                    </g>
                </g>
            </g>
        </g>
    </g>
</svg>